<svg xmlns="http://www.w3.org/2000/svg" viewBox="0 0 32 36" fill="none">
  <!-- Top cap -->
  <ellipse cx="16" cy="4.5" rx="13.5" ry="2.8" stroke="#ff6600" stroke-width="1.6" fill="none" opacity="0.4"/>
  <!-- Back arcs (light) -->
  <path d="M 2.5 4.5 A 13.5 2.8 0 0 1 29.5 4.5" stroke="#ff6600" stroke-width="1.6" stroke-linecap="round" fill="none" opacity="0.2"/>
  <!-- Front arc 1 -->
  <path d="M 29.5 4.5 A 13.5 3.6 0 0 0 2.5 11.2" stroke="#ff6600" stroke-width="2.8" stroke-linecap="round" fill="none"/>
  <path d="M 2.5 11.2 A 13.5 2.8 0 0 1 29.5 11.2" stroke="#ff6600" stroke-width="1.6" stroke-linecap="round" fill="none" opacity="0.2"/>
  <!-- Front arc 2 -->
  <path d="M 29.5 11.2 A 13.5 3.6 0 0 0 2.5 17.9" stroke="#ff6600" stroke-width="2.8" stroke-linecap="round" fill="none"/>
  <path d="M 2.5 17.9 A 13.5 2.8 0 0 1 29.5 17.9" stroke="#ff6600" stroke-width="1.6" stroke-linecap="round" fill="none" opacity="0.2"/>
  <!-- Front arc 3 -->
  <path d="M 29.5 17.9 A 13.5 3.6 0 0 0 2.5 24.6" stroke="#ff6600" stroke-width="2.8" stroke-linecap="round" fill="none"/>
  <path d="M 2.5 24.6 A 13.5 2.8 0 0 1 29.5 24.6" stroke="#ff6600" stroke-width="1.6" stroke-linecap="round" fill="none" opacity="0.2"/>
  <!-- Front arc 4 -->
  <path d="M 29.5 24.6 A 13.5 3.6 0 0 0 2.5 31.3" stroke="#ff6600" stroke-width="2.8" stroke-linecap="round" fill="none"/>
  <!-- Bottom cap -->
  <ellipse cx="16" cy="31.3" rx="13.5" ry="2.8" stroke="#ff6600" stroke-width="1.6" fill="none" opacity="0.4"/>
</svg>
